# xmcd
#
# Track frame offsets:
#	150
#	14260
#	28370
#	39952
#	51534
#	65466
#	79398
#	94586
#	109774
#	120946
#	132118
#	143840
#	155562
#	167465
#	179368
#	189989
#
# Disc length: 2672 seconds
#
# Revision: 1
# Processed by: cddbd v1.5.2PL0 Copyright (c) Steve Scherf et al.
# Submitted via: audiograbber 1.83.01
#
DISCID=d10a6e10
DTITLE=Various Artist - KTEL6035-2
DYEAR=1900
DGENRE=Karaoke
TTITLE0=Lynn Anderson (vocal) - Rose Garden
TTITLE1=Lynn Anderson - Rose Garden
TTITLE2=Don Gibson (vocal) - Oh Lonesome Me
TTITLE3=Don Gibson  - Oh Lonesome Me
TTITLE4=Jimmy Dean (vocal) - Big Bad John
TTITLE5=Jimmy Dean - Big Bad John
TTITLE6=Jeannie C Riley (vocal) - Harper Valley PTA
TTITLE7=Jeannie C Riley - Harper Valley PTA
TTITLE8=Ferlin Husky (vocal) - Wings Of A Dove
TTITLE9=Ferlin Husky - Wings Of A Dove
TTITLE10=Stonewall Jackson (vocal) - Waterloo
TTITLE11=Stonewall Jackson - Waterloo
TTITLE12=Donna Fargo (vocal) - Happiest Girl In The Whole USA
TTITLE13=Donna Fargo - Happiest Girl In The Whole USA
TTITLE14=Ned Miller (vocal) - From A Jack To A King
TTITLE15=Ned Miller - From A Jack To A King
EXTD=
EXTT0=
EXTT1=
EXTT2=
EXTT3=
EXTT4=
EXTT5=
EXTT6=
EXTT7=
EXTT8=
EXTT9=
EXTT10=
EXTT11=
EXTT12=
EXTT13=
EXTT14=
EXTT15=
PLAYORDER=
